<svg xmlns="http://www.w3.org/2000/svg" width="239" height="201" fill="none"><g filter="url('#filter0_b_5_2243')"><path fill="url('#paint0_linear_5_2243')" fill-opacity=".03" d="M.5 201c31.32 0 62.334-5.199 91.27-15.3s55.228-24.907 77.375-43.572c22.147-18.664 39.715-40.822 51.7-65.209C232.831 52.533 239 26.396 239 0H.5z"/></g><path fill="#fff" d="M82.42 91.282q-1.916-5.322-7.88-5.323h-1.255v21.886h1.255q4.61 0 6.806-3.635 1.85-3.102 1.85-7.895-.005-2.851-.776-5.033M60.884 91.545q1.917 5.322 7.879 5.322h1.255V74.98h-1.255q-4.611 0-6.807 3.635-1.844 3.102-1.845 7.895 0 2.848.773 5.034M40 40.028h16.698v5.796H45.994v2.898h8.892v5.5h-8.892v2.931h10.704v5.797H40zM65.095 40H86.7L75.897 63.416zm10.802 20.518 8.926-19.3H67.005zM95.329 40.028h16.698v5.796h-10.704v2.898h8.892v5.5h-8.892v2.931h10.704v5.797H95.329zM122.302 62.917V40h1.285l16.006 15.578V40h1.218v22.922zM158.3 62.95V45.824h-8.662v-5.796h18.509v5.796h-8.662V62.95zM49.846 79.549q2.175 0 3.458.658a5.75 5.75 0 0 1 3.228 5.27 5.5 5.5 0 0 1-.856 2.98 6.1 6.1 0 0 1-2.339 2.158 6.5 6.5 0 0 1 2.997 2.174 5.5 5.5 0 0 1 1.219 3.49 5.94 5.94 0 0 1-.873 3.146 6.35 6.35 0 0 1-2.322 2.256 6.2 6.2 0 0 1-1.613.593q-.89.197-2.372.197H40.23V79.549zM88.462 100.808q-2.586-2.256-2.552-6.768h5.368q-.033 1.877 1.12 2.865 1.152.988 3.227.988 1.713 0 2.7-.56.99-.56.989-1.712 0-.956-1.005-1.383a9.4 9.4 0 0 0-1.992-.61q-.988-.18-1.219-.22a26.4 26.4 0 0 1-4.38-1.207 7.64 7.64 0 0 1-3.096-2.14q-1.251-1.45-1.251-3.821t1.251-4.034 3.343-2.487c1.455-.56 3.003-.84 4.561-.823q2.998 0 5.188 1.12t3.441 3.392c.387.64.645 1.351.758 2.091q.13.976.131 1.96h-5.368q0-1.779-.955-2.619-.956-.84-2.964-.84-1.614 0-2.503.56-.89.561-.89 1.515 0 1.054 1.186 1.548a18 18 0 0 0 2.997.89q2.965.592 4.628 1.136a6.5 6.5 0 0 1 2.881 1.926q1.22 1.384 1.219 3.887 0 2.37-1.317 4.084-1.318 1.712-3.475 2.618a11.9 11.9 0 0 1-4.66.906q-4.775-.006-7.361-2.262M118.778 102.471V85.345h-8.662V79.55h18.51v5.796h-8.662v17.126zM134.85 79.549h16.698v5.796h-10.704v2.899h8.893v5.5h-8.893v2.93h10.704v5.797H134.85zM176.281 102.471h-17.62V79.549h8.925q2.865 0 4.677 1.02a7.1 7.1 0 0 1 2.766 2.701 7.43 7.43 0 0 1 .988 3.788 7.26 7.26 0 0 1-1.581 4.594 7.44 7.44 0 0 1-3.985 2.684zm-16.402-20.913V93.38h8.464zm0 19.695h14.096l-4.808-6.686-1.021.033h-8.267zm.857-20.486 8.958 12.516a6.3 6.3 0 0 0 3.656-2.207 6.1 6.1 0 0 0 1.449-4.018 6.3 6.3 0 0 0-.89-3.294 5.84 5.84 0 0 0-2.503-2.272q-1.449-.725-3.787-.725z"/><defs><linearGradient id="paint0_linear_5_2243" x1="281.622" x2="-49.624" y1="-75.662" y2="302.993" gradientUnits="userSpaceOnUse"><stop stop-color="#C4C4C4"/><stop offset="1" stop-color="#C4C4C4" stop-opacity="0"/></linearGradient><filter id="filter0_b_5_2243" width="298.5" height="261" x="-29.5" y="-30" color-interpolation-filters="sRGB" filterUnits="userSpaceOnUse"><feFlood flood-opacity="0" result="BackgroundImageFix"/><feGaussianBlur in="BackgroundImageFix" stdDeviation="15"/><feComposite in2="SourceAlpha" operator="in" result="effect1_backgroundBlur_5_2243"/><feBlend in="SourceGraphic" in2="effect1_backgroundBlur_5_2243" result="shape"/></filter></defs></svg>