<svg xmlns="http://www.w3.org/2000/svg" width="12" height="12" fill="none"><path fill="#939393" d="M1.509 1.509A5.12 5.12 0 0 1 5.152 0c1.376 0 2.67.536 3.643 1.509a5.12 5.12 0 0 1 1.51 3.643 5.1 5.1 0 0 1-1.27 3.386l2.862 2.861a.352.352 0 0 1-.498.498L8.538 9.036a5.1 5.1 0 0 1-3.386 1.268A5.12 5.12 0 0 1 1.51 8.795 5.12 5.12 0 0 1 0 5.152c0-1.376.536-2.67 1.509-3.643m.498 6.789a4.453 4.453 0 0 0 6.29 0 4.453 4.453 0 0 0 0-6.291A4.43 4.43 0 0 0 5.153.706a4.43 4.43 0 0 0-3.145 1.3 4.453 4.453 0 0 0 0 6.292"/></svg>